<?xml version="1.0" encoding="UTF-8"?>
<svg id="reverse" xmlns="http://www.w3.org/2000/svg" viewBox="0 0 2095 1224">
  <defs>
    <style>
      .cls-1 {
        fill: #fff;
      }
    </style>
  </defs>
  <g id="beacon_logo_vertical_white" data-name="beacon logo vertical white">
    <path id="wordmark" class="cls-1" d="M634.98,988.08c-22.87,0-43.03-4.87-60.49-14.6-17.46-9.73-31.05-23.48-40.79-41.25-9.73-17.77-14.6-38.7-14.6-62.81v-5.56c0-24.1,4.79-45.03,14.37-62.81,9.57-17.76,23.02-31.52,40.32-41.25,17.3-9.73,37.39-14.6,60.26-14.6s42.18,5.03,58.87,15.06c16.69,10.04,29.66,23.95,38.93,41.72,9.27,17.77,13.91,38.4,13.91,61.88v16.93c0,1.66-1.34,3-3,3h-164.33c.62,15.76,6.49,28.59,17.61,38.47,11.12,9.89,24.72,14.83,40.79,14.83s28.43-3.55,36.15-10.66c6.91-6.36,12.34-13.34,16.29-20.94.77-1.47,2.58-2.05,4.05-1.28l42.29,22.17c1.51.79,2.07,2.68,1.21,4.16-4.23,7.28-9.98,15.1-17.25,23.46-8.19,9.43-19.08,17.46-32.68,24.1-13.6,6.64-30.9,9.96-51.91,9.96ZM578.89,840.22h107.53c-1.24-13.28-6.57-23.94-15.99-31.98-9.43-8.03-21.71-12.05-36.85-12.05s-28.27,4.02-37.54,12.05c-9.27,8.04-14.99,18.7-17.15,31.98ZM883.42,988.08c-18.54,0-35.69-4.56-51.45-13.67-15.76-9.11-28.43-22.48-38.01-40.09-9.58-17.61-14.37-38.94-14.37-63.96v-7.42c0-25.03,4.79-46.35,14.37-63.96,9.57-17.61,22.32-30.98,38.24-40.09,15.91-9.11,32.98-13.67,51.22-13.67,21.01,0,37,3.48,47.97,10.43,10.97,6.95,19.08,14.91,24.33,23.87h8.34v-24.81c0-1.66,1.34-3,3-3h51.47c1.66,0,3,1.34,3,3v164.79c0,9.27,4.32,13.91,12.98,13.91h15.54c1.66,0,3,1.34,3,3v42.2c0,1.66-1.34,3-3,3h-43.35c-11.12,0-20.32-3.08-27.58-9.27-7.26-6.18-10.89-14.67-10.89-25.49v-.46h-8.34c-5.26,11.44-13.67,21.25-25.26,29.43-11.59,8.18-28.66,12.28-51.22,12.28ZM901.03,937.09c18.23,0,33.29-5.79,45.19-17.38,11.89-11.59,17.85-28.51,17.85-50.75v-4.64c0-22.25-6.03-39.17-18.08-50.75-12.05-11.59-27.04-17.38-44.96-17.38s-32.91,5.79-44.96,17.38c-12.05,11.59-18.08,28.51-18.08,50.75v4.64c0,22.25,6.03,39.17,18.08,50.75s27.04,17.38,44.96,17.38ZM1197.67,988.08c-22.25,0-42.41-4.64-60.49-13.91-18.08-9.27-32.37-22.71-42.87-40.32-10.51-17.61-15.76-38.94-15.76-63.97v-6.49c0-25.03,5.25-46.35,15.76-63.96,10.5-17.61,24.8-31.06,42.87-40.33,18.08-9.27,38.24-13.91,60.49-13.91s40.79,3.87,56.55,11.59c15.76,7.73,28.51,18.31,38.24,31.75,9.17,12.66,15.38,26.89,18.66,42.69.34,1.63-.68,3.23-2.31,3.57l-50.57,10.78c-1.66.35-3.28-.74-3.57-2.41-1.41-8.05-4.03-15.37-7.87-21.96-4.33-7.42-10.43-13.28-18.31-17.61-7.88-4.32-17.69-6.49-29.43-6.49s-22.33,2.55-31.75,7.65c-9.43,5.1-16.85,12.67-22.25,22.71-5.41,10.04-8.11,22.33-8.11,36.85v4.64c0,14.53,2.7,26.81,8.11,36.85,5.4,10.05,12.82,17.61,22.25,22.71,9.42,5.1,20,7.65,31.75,7.65,17.61,0,30.98-4.55,40.09-13.67,8.48-8.48,14.09-19.44,16.82-32.88.34-1.66,1.98-2.71,3.63-2.32l50.51,12.01c1.63.39,2.65,2.05,2.21,3.67-4.1,15.22-10.72,29.14-19.86,41.77-9.73,13.44-22.48,24.03-38.24,31.75-15.76,7.72-34.61,11.59-56.55,11.59ZM1463.72,988.08c-22.87,0-43.42-4.64-61.65-13.91-18.24-9.27-32.6-22.71-43.11-40.32-10.51-17.61-15.76-38.77-15.76-63.5v-7.42c0-24.72,5.25-45.89,15.76-63.5,10.5-17.61,24.87-31.06,43.11-40.33,18.23-9.27,38.78-13.91,61.65-13.91s43.41,4.64,61.65,13.91c18.23,9.27,32.6,22.71,43.1,40.33,10.5,17.61,15.76,38.78,15.76,63.5v7.42c0,24.73-5.26,45.89-15.76,63.5-10.51,17.61-24.88,31.05-43.1,40.32-18.24,9.27-38.78,13.91-61.65,13.91ZM1463.72,936.17c17.92,0,32.75-5.79,44.5-17.38,11.74-11.59,17.61-28.19,17.61-49.83v-4.64c0-21.63-5.79-38.24-17.38-49.83s-26.5-17.38-44.73-17.38-32.76,5.79-44.5,17.38c-11.75,11.59-17.61,28.2-17.61,49.83v4.64c0,21.63,5.87,38.24,17.61,49.83,11.74,11.59,26.57,17.38,44.5,17.38ZM469.05,798.97c-9.58-17.61-22.25-30.98-38.01-40.09-15.76-9.11-32.91-13.67-51.45-13.67-13.91,0-25.57,1.62-34.99,4.87-9.43,3.24-17,7.34-22.71,12.28-5.72,4.95-10.28,10.2-13.67,15.76h-8.34v-114.91c0-2.48-2.85-3.89-4.82-2.38l-52.4,40.02c-.74.57-1.18,1.45-1.18,2.38v275.37c0,1.66,1.34,3,3,3h51.48c1.66,0,3-1.34,3-3v-24.81h8.34c5.25,8.65,13.44,16.53,24.57,23.64,11.12,7.1,27.04,10.66,47.74,10.66,18.54,0,35.69-4.56,51.45-13.67,15.76-9.11,28.43-22.48,38.01-40.09,9.57-17.61,14.37-38.94,14.37-63.96v-7.42c0-25.03-4.79-46.35-14.37-63.96ZM425.02,868.96c0,22.25-6.03,39.17-18.08,50.75-12.05,11.59-27.04,17.38-44.96,17.38s-32.91-5.79-44.96-17.38c-12.05-11.59-18.08-28.5-18.08-50.75v-4.64c0-22.25,6.03-39.17,18.08-50.75,12.05-11.59,27.04-17.38,44.96-17.38s33.29,5.79,45.19,17.38c11.89,11.59,17.85,28.5,17.85,50.75v4.64ZM1797.74,973.84l52.4,6.92c1.8.24,3.39-1.16,3.39-2.97v-133.4c0-19.16-3.71-35.92-11.12-50.29-7.42-14.37-17.84-25.65-31.29-33.84-13.44-8.18-29.13-12.28-47.05-12.28-20.71,0-36.15,3.63-46.35,10.89-10.2,7.26-17.15,14.91-20.86,22.94h-8.34v-27.13c0-1.66-1.34-3-3-3h-51.48c-1.66,0-3,1.34-3,3v223.48c0,1.81,1.6,3.21,3.39,2.97l52.4-6.92c1.49-.2,2.61-1.47,2.61-2.97v-106.46c0-21.32,4.94-37.93,14.83-49.83,9.89-11.89,23.79-17.84,41.72-17.84,15.76,0,27.88,4.33,36.39,12.98,8.49,8.65,12.75,21.63,12.75,38.93v121.84c0,1.51,1.12,2.78,2.61,2.97Z"/>
    <g id="symbol">
      <path class="cls-1" d="M889.5,558.76l319-245.13v243.73c0,1.66-1.34,3-3,3h-316c-1.66,0-3-1.34-3-3V241.35c0-1.66,1.34-3,3-3h243.73l-245.13,319c-.71.93.47,2.11,1.4,1.4ZM1268.5,175.35h-85.52c-.93,0-1.81.43-2.38,1.18l-47.37,61.82h72.27c1.66,0,3,1.34,3,3v72.27l61.82-47.37c.74-.57,1.18-1.45,1.18-2.38v-85.52c0-1.66-1.34-3-3-3Z"/>
    </g>
  </g>
</svg>