<?xml version="1.0" encoding="UTF-8"?>
<svg xmlns="http://www.w3.org/2000/svg" version="1.1" viewBox="0 0 2656 807">
  <defs>
    <style>
      .cls-1 {
        fill: #fff;
      }
    </style>
  </defs>
  <!-- Generator: Adobe Illustrator 28.7.1, SVG Export Plug-In . SVG Version: 1.2.0 Build 142)  -->
  <g>
    <g id="positive">
      <g id="beacon_techtorch_logo_horizontal_black">
        <path id="wordmark" class="cls-1" d="M1197.8,570.7c-22.9,0-43-4.9-60.5-14.6s-31.1-23.5-40.8-41.2c-9.7-17.8-14.6-38.7-14.6-62.8v-5.6c0-24.1,4.8-45,14.4-62.8,9.6-17.8,23-31.5,40.3-41.2,17.3-9.7,37.4-14.6,60.3-14.6s42.2,5,58.9,15.1c16.7,10,29.7,24,38.9,41.7s13.9,38.4,13.9,61.9v16.9c0,1.7-1.3,3-3,3h-164.3c.6,15.8,6.5,28.6,17.6,38.5,11.1,9.9,24.7,14.8,40.8,14.8s28.4-3.5,36.2-10.7c6.9-6.4,12.3-13.3,16.3-20.9.8-1.5,2.6-2,4.1-1.3l42.3,22.2c1.5.8,2.1,2.7,1.2,4.2-4.2,7.3-10,15.1-17.2,23.5-8.2,9.4-19.1,17.5-32.7,24.1-13.6,6.6-30.9,10-51.9,10h0ZM1141.7,422.9h107.5c-1.2-13.3-6.6-23.9-16-32-9.4-8-21.7-12-36.8-12s-28.3,4-37.5,12c-9.3,8-15,18.7-17.2,32ZM1446.3,570.7c-18.5,0-35.7-4.6-51.4-13.7s-28.4-22.5-38-40.1c-9.6-17.6-14.4-38.9-14.4-64v-7.4c0-25,4.8-46.4,14.4-64,9.6-17.6,22.3-31,38.2-40.1,15.9-9.1,33-13.7,51.2-13.7s37,3.5,48,10.4c11,7,19.1,14.9,24.3,23.9h8.3v-24.8c0-1.7,1.3-3,3-3h51.5c1.7,0,3,1.3,3,3v164.8c0,9.3,4.3,13.9,13,13.9h15.5c1.7,0,3,1.3,3,3v42.2c0,1.7-1.3,3-3,3h-43.3c-11.1,0-20.3-3.1-27.6-9.3-7.3-6.2-10.9-14.7-10.9-25.5v-.5h-8.3c-5.3,11.4-13.7,21.2-25.3,29.4s-28.7,12.3-51.2,12.3h0ZM1463.9,519.7c18.2,0,33.3-5.8,45.2-17.4,11.9-11.6,17.8-28.5,17.8-50.8v-4.6c0-22.2-6-39.2-18.1-50.8-12.1-11.6-27-17.4-45-17.4s-32.9,5.8-45,17.4c-12.1,11.6-18.1,28.5-18.1,50.8v4.6c0,22.2,6,39.2,18.1,50.8,12.1,11.6,27,17.4,45,17.4ZM1760.5,570.7c-22.2,0-42.4-4.6-60.5-13.9-18.1-9.3-32.4-22.7-42.9-40.3-10.5-17.6-15.8-38.9-15.8-64v-6.5c0-25,5.2-46.4,15.8-64,10.5-17.6,24.8-31.1,42.9-40.3,18.1-9.3,38.2-13.9,60.5-13.9s40.8,3.9,56.6,11.6c15.8,7.7,28.5,18.3,38.2,31.8,9.2,12.7,15.4,26.9,18.7,42.7.3,1.6-.7,3.2-2.3,3.6l-50.6,10.8c-1.7.4-3.3-.7-3.6-2.4-1.4-8-4-15.4-7.9-22-4.3-7.4-10.4-13.3-18.3-17.6-7.9-4.3-17.7-6.5-29.4-6.5s-22.3,2.5-31.8,7.6c-9.4,5.1-16.8,12.7-22.2,22.7-5.4,10-8.1,22.3-8.1,36.9v4.6c0,14.5,2.7,26.8,8.1,36.9,5.4,10,12.8,17.6,22.2,22.7,9.4,5.1,20,7.6,31.8,7.6,17.6,0,31-4.5,40.1-13.7,8.5-8.5,14.1-19.4,16.8-32.9.3-1.7,2-2.7,3.6-2.3l50.5,12c1.6.4,2.7,2,2.2,3.7-4.1,15.2-10.7,29.1-19.9,41.8-9.7,13.4-22.5,24-38.2,31.8s-34.6,11.6-56.6,11.6h0ZM2026.6,570.7c-22.9,0-43.4-4.6-61.7-13.9-18.2-9.3-32.6-22.7-43.1-40.3s-15.8-38.8-15.8-63.5v-7.4c0-24.7,5.2-45.9,15.8-63.5,10.5-17.6,24.9-31.1,43.1-40.3,18.2-9.3,38.8-13.9,61.7-13.9s43.4,4.6,61.6,13.9c18.2,9.3,32.6,22.7,43.1,40.3,10.5,17.6,15.8,38.8,15.8,63.5v7.4c0,24.7-5.3,45.9-15.8,63.5-10.5,17.6-24.9,31-43.1,40.3-18.2,9.3-38.8,13.9-61.7,13.9h0ZM2026.6,518.8c17.9,0,32.8-5.8,44.5-17.4,11.7-11.6,17.6-28.2,17.6-49.8v-4.6c0-21.6-5.8-38.2-17.4-49.8-11.6-11.6-26.5-17.4-44.7-17.4s-32.8,5.8-44.5,17.4c-11.8,11.6-17.6,28.2-17.6,49.8v4.6c0,21.6,5.9,38.2,17.6,49.8s26.6,17.4,44.5,17.4h0ZM1031.9,381.6c-9.6-17.6-22.2-31-38-40.1s-32.9-13.7-51.5-13.7-25.6,1.6-35,4.9c-9.4,3.2-17,7.3-22.7,12.3-5.7,5-10.3,10.2-13.7,15.8h-8.3v-114.9c0-2.5-2.8-3.9-4.8-2.4l-52.4,40c-.7.6-1.2,1.5-1.2,2.4v275.4c0,1.7,1.3,3,3,3h51.5c1.7,0,3-1.3,3-3v-24.8h8.3c5.2,8.7,13.4,16.5,24.6,23.6,11.1,7.1,27,10.7,47.7,10.7s35.7-4.6,51.5-13.7,28.4-22.5,38-40.1c9.6-17.6,14.4-38.9,14.4-64v-7.4c0-25-4.8-46.4-14.4-64h0ZM987.8,451.6c0,22.2-6,39.2-18.1,50.8-12,11.6-27,17.4-45,17.4s-32.9-5.8-45-17.4c-12-11.6-18.1-28.5-18.1-50.8v-4.6c0-22.2,6-39.2,18.1-50.8,12-11.6,27-17.4,45-17.4s33.3,5.8,45.2,17.4c11.9,11.6,17.8,28.5,17.8,50.8v4.6h0ZM2360.6,556.5l52.4,6.9c1.8.2,3.4-1.2,3.4-3v-133.4c0-19.2-3.7-35.9-11.1-50.3-7.4-14.4-17.8-25.6-31.3-33.8-13.4-8.2-29.1-12.3-47.1-12.3s-36.1,3.6-46.4,10.9c-10.2,7.3-17.1,14.9-20.9,22.9h-8.3v-27.1c0-1.7-1.3-3-3-3h-51.5c-1.7,0-3,1.3-3,3v223.5c0,1.8,1.6,3.2,3.4,3l52.4-6.9c1.5-.2,2.6-1.5,2.6-3v-106.5c0-21.3,4.9-37.9,14.8-49.8,9.9-11.9,23.8-17.8,41.7-17.8s27.9,4.3,36.4,13c8.5,8.6,12.8,21.6,12.8,38.9v121.8c0,1.5,1.1,2.8,2.6,3h0Z"/>
        <g id="symbol">
          <path class="cls-1" d="M244,562.6l319-245.1v243.7c0,1.7-1.3,3-3,3H244c-1.7,0-3-1.3-3-3V245.2c0-1.7,1.3-3,3-3h243.7l-245.1,319c-.7.9.5,2.1,1.4,1.4h0ZM623,179.2h-85.5c-.9,0-1.8.4-2.4,1.2l-47.4,61.8h72.3c1.7,0,3,1.3,3,3v72.3l61.8-47.4c.7-.6,1.2-1.5,1.2-2.4v-85.5c0-1.7-1.3-3-3-3Z"/>
        </g>
      </g>
      <g>
        <path class="cls-1" d="M804.6,751.1v-87.5h34.8c5.3,0,10.1,1.1,14.3,3.2,4.2,2.1,7.5,5.1,9.9,9,2.4,3.9,3.6,8.5,3.6,13.9v1.6c0,5.4-1.2,10.1-3.7,14-2.5,3.9-5.8,6.9-9.9,9-4.2,2.1-8.9,3.1-14.1,3.1h-21.3v33.6h-13.5ZM818.2,705.2h19.9c4.8,0,8.5-1.3,11.4-3.8,2.8-2.5,4.3-5.9,4.3-10.3v-1.2c0-4.4-1.4-7.9-4.3-10.4-2.8-2.5-6.6-3.8-11.4-3.8h-19.9v29.4Z"/>
        <path class="cls-1" d="M920.3,752.8c-10.8,0-19.3-3-25.6-9.1-6.3-6-9.5-14.8-9.5-26.2v-20.5c0-11.4,3.2-20.2,9.5-26.2,6.3-6,14.9-9.1,25.6-9.1s19.3,3,25.7,9.1c6.4,6,9.6,14.8,9.6,26.2v20.5c0,11.4-3.2,20.2-9.6,26.2-6.4,6-14.9,9.1-25.7,9.1ZM920.3,740.7c6.9,0,12.3-2,16-6.1,3.8-4,5.6-9.6,5.6-16.6v-21.5c0-7-1.9-12.5-5.6-16.6-3.8-4-9.1-6.1-16-6.1s-12,2-15.9,6.1c-3.8,4-5.8,9.6-5.8,16.6v21.5c0,7,1.9,12.5,5.8,16.6,3.8,4,9.1,6.1,15.9,6.1Z"/>
        <path class="cls-1" d="M986,751.1l-12.9-87.5h13.5l10.5,78.4h2l13.5-78.4h23.6l13.5,78.4h2l10.4-78.4h13.5l-12.9,87.5h-23.6l-13.8-79.5h-2l-13.6,79.5h-23.8Z"/>
        <path class="cls-1" d="M1096.4,751.1v-87.5h55.1v12.3h-41.6v25.1h38.1v12.3h-38.1v25.6h42.3v12.3h-55.8Z"/>
        <path class="cls-1" d="M1173.7,751.1v-87.5h36.8c5.4,0,10.2.9,14.3,2.8,4.1,1.9,7.3,4.6,9.6,8.1,2.3,3.5,3.4,7.7,3.4,12.5v1.4c0,5.5-1.3,9.9-3.9,13.2-2.6,3.3-5.8,5.6-9.6,6.9v2c3.2.2,5.7,1.2,7.6,3.2,1.9,2,2.9,4.8,2.9,8.4v29h-13.6v-27.1c0-2.3-.6-4-1.8-5.4-1.2-1.3-3-2-5.6-2h-26.6v34.5h-13.5ZM1187.2,704.3h21.8c4.8,0,8.6-1.2,11.3-3.7,2.7-2.5,4-5.8,4-10.1v-1c0-4.3-1.3-7.6-3.9-10.1-2.6-2.5-6.4-3.7-11.3-3.7h-21.8v28.5Z"/>
        <path class="cls-1" d="M1260.1,751.1v-87.5h55.1v12.3h-41.6v25.1h38.1v12.3h-38.1v25.6h42.3v12.3h-55.8Z"/>
        <path class="cls-1" d="M1334.1,751.1v-12h11.8v-63.5h-11.8v-12h35c11.7,0,20.6,3,26.8,8.9,6.2,5.9,9.3,14.8,9.3,26.8v16.4c0,11.9-3.1,20.8-9.3,26.7-6.2,5.9-15.2,8.8-26.8,8.8h-35ZM1359.5,738.8h9.8c7.6,0,13.2-1.9,16.9-5.8,3.7-3.8,5.5-9.5,5.5-17.1v-17.3c0-7.7-1.8-13.4-5.5-17.1-3.7-3.8-9.3-5.6-16.9-5.6h-9.8v62.9Z"/>
        <path class="cls-1" d="M1463.9,751.1v-12h11.8v-63.5h-11.8v-12h44.4c5.3,0,9.8.9,13.8,2.7,3.9,1.8,7,4.3,9.2,7.6,2.2,3.3,3.3,7.2,3.3,11.7v1.2c0,4-.8,7.3-2.3,9.9-1.5,2.6-3.3,4.6-5.4,6-2.1,1.4-4.1,2.4-6.1,3v2c1.9.5,4,1.5,6.2,2.9,2.2,1.5,4.1,3.5,5.6,6.1,1.5,2.6,2.3,6,2.3,10.1v1.3c0,4.8-1.1,9-3.4,12.4-2.3,3.4-5.4,6-9.3,7.9-4,1.8-8.5,2.8-13.7,2.8h-44.6ZM1489.3,700.8h17.6c4.3,0,7.7-1.1,10.3-3.2,2.6-2.1,3.9-5,3.9-8.7v-1.2c0-3.7-1.3-6.6-3.8-8.7-2.5-2.1-6-3.2-10.3-3.2h-17.6v25ZM1489.3,738.8h17.6c4.5,0,8-1.1,10.6-3.3,2.6-2.2,3.9-5.2,3.9-9v-1.1c0-3.8-1.3-6.8-3.8-9-2.5-2.2-6.1-3.3-10.7-3.3h-17.6v25.6Z"/>
        <path class="cls-1" d="M1578.2,751.1v-31.8l-30.4-55.8h15.3l21,39.6h1.9l21-39.6h15.3l-30.4,55.8v31.8h-13.6Z"/>
        <path class="cls-1" d="M1695.4,751.1v-75.3h-26.9v-12.3h67.3v12.3h-26.9v75.3h-13.5Z"/>
        <path class="cls-1" d="M1755.4,751.1v-87.5h55.1v12.3h-41.6v25.1h38.1v12.3h-38.1v25.6h42.3v12.3h-55.8Z"/>
        <path class="cls-1" d="M1865.2,752.8c-10.7,0-19.1-3-25.4-9.1-6.3-6-9.4-14.8-9.4-26.2v-20.5c0-11.4,3.1-20.2,9.4-26.2,6.3-6,14.7-9.1,25.4-9.1s18.6,2.9,24.3,8.8c5.7,5.8,8.6,13.8,8.6,23.9v.8h-13.4v-1.1c0-5.9-1.6-10.8-4.8-14.5-3.2-3.8-8.1-5.6-14.7-5.6s-11.9,2-15.6,6.1c-3.8,4-5.6,9.7-5.6,16.8v21c0,7.1,1.9,12.7,5.6,16.8,3.8,4.1,9,6.1,15.6,6.1s11.5-1.9,14.7-5.7c3.2-3.8,4.8-8.6,4.8-14.4v-2.1h13.4v1.8c0,10.1-2.9,18.1-8.6,23.9-5.7,5.8-13.8,8.8-24.3,8.8Z"/>
        <path class="cls-1" d="M1920.5,751.1v-87.5h13.5v37.5h36.8v-37.5h13.5v87.5h-13.5v-37.8h-36.8v37.8h-13.5Z"/>
        <path class="cls-1" d="M2030.8,751.1v-75.3h-26.9v-12.3h67.3v12.3h-26.9v75.3h-13.5Z"/>
        <path class="cls-1" d="M2120.1,752.8c-10.8,0-19.3-3-25.6-9.1-6.3-6-9.5-14.8-9.5-26.2v-20.5c0-11.4,3.2-20.2,9.5-26.2,6.3-6,14.9-9.1,25.6-9.1s19.3,3,25.7,9.1c6.4,6,9.6,14.8,9.6,26.2v20.5c0,11.4-3.2,20.2-9.6,26.2-6.4,6-14.9,9.1-25.7,9.1ZM2120.1,740.7c6.9,0,12.3-2,16-6.1,3.8-4,5.6-9.6,5.6-16.6v-21.5c0-7-1.9-12.5-5.6-16.6-3.8-4-9.1-6.1-16-6.1s-12,2-15.9,6.1c-3.8,4-5.8,9.6-5.8,16.6v21.5c0,7,1.9,12.5,5.8,16.6,3.8,4,9.1,6.1,15.9,6.1Z"/>
        <path class="cls-1" d="M2178.7,751.1v-87.5h36.8c5.4,0,10.2.9,14.3,2.8,4.1,1.9,7.3,4.6,9.6,8.1,2.3,3.5,3.4,7.7,3.4,12.5v1.4c0,5.5-1.3,9.9-3.9,13.2-2.6,3.3-5.8,5.6-9.6,6.9v2c3.2.2,5.7,1.2,7.6,3.2,1.9,2,2.9,4.8,2.9,8.4v29h-13.6v-27.1c0-2.3-.6-4-1.8-5.4-1.2-1.3-3-2-5.6-2h-26.6v34.5h-13.5ZM2192.2,704.3h21.8c4.8,0,8.6-1.2,11.3-3.7,2.7-2.5,4-5.8,4-10.1v-1c0-4.3-1.3-7.6-3.9-10.1-2.6-2.5-6.4-3.7-11.3-3.7h-21.8v28.5Z"/>
        <path class="cls-1" d="M2297.7,752.8c-10.7,0-19.1-3-25.4-9.1-6.3-6-9.4-14.8-9.4-26.2v-20.5c0-11.4,3.1-20.2,9.4-26.2,6.3-6,14.7-9.1,25.4-9.1s18.6,2.9,24.3,8.8c5.7,5.8,8.6,13.8,8.6,23.9v.8h-13.4v-1.1c0-5.9-1.6-10.8-4.8-14.5-3.2-3.8-8.1-5.6-14.7-5.6s-11.9,2-15.6,6.1c-3.8,4-5.6,9.7-5.6,16.8v21c0,7.1,1.9,12.7,5.6,16.8,3.8,4.1,9,6.1,15.6,6.1s11.5-1.9,14.7-5.7c3.2-3.8,4.8-8.6,4.8-14.4v-2.1h13.4v1.8c0,10.1-2.9,18.1-8.6,23.9-5.7,5.8-13.8,8.8-24.3,8.8Z"/>
        <path class="cls-1" d="M2352.9,751.1v-87.5h13.5v37.5h36.8v-37.5h13.5v87.5h-13.5v-37.8h-36.8v37.8h-13.5Z"/>
      </g>
    </g>
  </g>
</svg>